<?xml version="1.0" encoding="UTF-8"?>
<svg width="100" height="35" viewBox="0 0 100 35" fill="none" xmlns="http://www.w3.org/2000/svg">
<path d="M7.96665 6.11491C8.49432 5.80514 9.29379 5.50904 10.3651 5.22964C11.4364 4.95025 12.5152 4.81055 13.6024 4.81055C15.1551 4.81055 16.5293 5.03604 17.7251 5.48627C18.9201 5.93649 19.6885 6.64334 20.0309 7.60529C20.5897 9.22018 21.1956 11.0985 21.8477 13.2411C22.4999 15.3836 23.1521 17.5961 23.8043 19.8791C24.4565 22.1613 25.0927 24.4132 25.7138 26.6332C26.3348 28.854 26.8784 30.8181 27.3438 32.5257C26.9711 32.9607 26.4123 33.3099 25.6667 33.5734C24.9211 33.8368 24.0366 33.9697 23.0116 33.9697C22.2661 33.9697 21.6374 33.9075 21.1249 33.7837C20.6125 33.6592 20.1934 33.4739 19.8677 33.2249C19.5412 32.9766 19.277 32.6509 19.0758 32.247C18.8738 31.8439 18.6954 31.3777 18.5398 30.85L17.7016 27.6362H9.27026C9.02123 28.5678 8.77296 29.5305 8.52469 30.5243C8.27566 31.5181 8.02739 32.4809 7.77912 33.4124C7.34408 33.5673 6.88626 33.6994 6.4049 33.808C5.92279 33.9166 5.34122 33.9712 4.65791 33.9712C3.07414 33.9712 1.90188 33.6987 1.14113 33.1558C0.379617 32.613 0 31.8598 0 30.8963C0 30.462 0.0622573 30.027 0.186013 29.592C0.309768 29.1577 0.449467 28.6452 0.60511 28.0545C0.822251 27.2163 1.12443 26.1762 1.51315 24.9341C1.90112 23.6927 2.32857 22.3489 2.79398 20.9048C3.25939 19.4607 3.75593 17.978 4.28436 16.4564C4.81203 14.9357 5.30933 13.4985 5.77474 12.1478C6.24091 10.7971 6.66684 9.59373 7.05557 8.53763C7.44354 7.48229 7.74647 6.67447 7.96361 6.11567L7.96665 6.11491ZM13.5561 12.1235C13.1211 13.4279 12.6321 14.8795 12.0885 16.4785C11.5449 18.0782 11.056 19.7007 10.6209 21.3459H16.3964C15.9614 19.6688 15.5188 18.0311 15.0693 16.4314C14.6183 14.8324 14.2076 13.3967 13.8348 12.1227H13.5554L13.5561 12.1235Z" fill="#F2631F"/>
<path d="M70.9742 33.5698C70.6318 33.6632 70.0965 33.7558 69.3669 33.8492C68.6372 33.9426 67.9145 33.9889 67.2008 33.9889C66.4871 33.9889 65.8577 33.9342 65.3141 33.8256C64.7705 33.7171 64.3126 33.5227 63.9399 33.2433C63.5671 32.9639 63.2877 32.5759 63.1017 32.0786C62.9157 31.5821 62.8223 30.9299 62.8223 30.1221V5.52896C63.1639 5.46746 63.7075 5.38167 64.4523 5.2731C65.1979 5.16453 65.9116 5.10986 66.5949 5.10986C67.2782 5.10986 67.938 5.16453 68.4816 5.2731C69.0245 5.38243 69.483 5.57603 69.8558 5.85543C70.2286 6.13483 70.508 6.52356 70.694 7.0201C70.8808 7.5174 70.9734 8.16958 70.9734 8.97665V33.5705L70.9742 33.5698Z" fill="#F2631F"/>
<path d="M99.5806 32.7779C99.1455 33.2129 98.5169 33.5462 97.6939 33.7793C96.8709 34.0124 95.8846 34.1286 94.7359 34.1286C93.5872 34.1286 92.4999 33.9577 91.4757 33.6161C90.4508 33.2744 89.6126 32.4514 88.9604 31.1471L84.3488 21.7379C83.8826 20.7759 83.4635 19.8671 83.0915 19.013C82.7187 18.1596 82.3148 17.1733 81.8805 16.055L81.6011 16.1013C81.7249 17.7785 81.7947 19.486 81.8107 21.2254C81.8259 22.9648 81.8342 24.6723 81.8342 26.3495V33.569C81.4926 33.6624 80.9725 33.755 80.274 33.8484C79.5755 33.9418 78.8838 33.9881 78.2013 33.9881C77.5187 33.9881 76.9121 33.9418 76.3844 33.8484C75.856 33.755 75.4217 33.569 75.0801 33.2896C74.7377 33.0102 74.4742 32.6306 74.2882 32.1485C74.1022 31.6671 74.0088 31.0385 74.0088 30.2618V6.97303C74.4431 6.35197 75.1104 5.88656 76.0117 5.57603C76.9121 5.26627 77.8748 5.10986 78.8998 5.10986C80.0485 5.10986 81.1433 5.28904 82.1835 5.64588C83.2236 6.00348 84.0542 6.81814 84.6753 8.09138L89.3332 17.5006C89.7994 18.4633 90.2185 19.3721 90.5905 20.2255C90.9633 21.0796 91.3664 22.0651 91.8015 23.1834L92.0345 23.1371C91.91 21.46 91.8326 19.7836 91.8015 18.1064C91.7703 16.4293 91.7551 14.7529 91.7551 13.0758V5.52896C92.0968 5.43558 92.6169 5.34295 93.3154 5.24956C94.0139 5.15618 94.7048 5.10986 95.3881 5.10986C96.7539 5.10986 97.7941 5.35054 98.5085 5.8319C99.2222 6.31401 99.5798 7.31544 99.5798 8.83619V32.7779H99.5806Z" fill="#F2631F"/>
<path d="M37.0234 14.8849V8.85352C37.0234 4.51602 39.9473 1 43.5536 1C47.16 1 50.0838 4.51602 50.0838 8.85352V14.8849" stroke="#F2631F" stroke-width="0.379617" stroke-miterlimit="10"/>
<path d="M40.1249 34.6127C33.4892 33.1087 28.8464 27.1039 28.8464 20.2996V12.5866C28.8464 11.6724 29.5874 10.9307 30.5023 10.9307H33.8133V20.3277C33.8133 24.751 36.7873 28.6717 41.0823 29.7301C47.5024 31.3131 53.2649 26.4707 53.2649 20.3072V10.9307H56.576C57.4901 10.9307 58.2319 11.6717 58.2319 12.5866V20.3072C58.2319 29.5228 49.7034 36.7841 40.1249 34.6127Z" fill="#F2631F"/>
<path d="M36.9762 15.4124C37.5586 15.4124 38.0308 14.9402 38.0308 14.3578C38.0308 13.7754 37.5586 13.3032 36.9762 13.3032C36.3938 13.3032 35.9216 13.7754 35.9216 14.3578C35.9216 14.9402 36.3938 15.4124 36.9762 15.4124Z" fill="#F2631F"/>
<path d="M50.2196 15.3133C50.802 15.3133 51.2742 14.8411 51.2742 14.2587C51.2742 13.6763 50.802 13.2041 50.2196 13.2041C49.6372 13.2041 49.165 13.6763 49.165 14.2587C49.165 14.8411 49.6372 15.3133 50.2196 15.3133Z" fill="#F2631F"/>
</svg> 