<svg xmlns="http://www.w3.org/2000/svg" viewBox="0 0 24 24" fill="#0084FF">
  <path d="M12 2C6.48 2 2 6.48 2 12C2 17.52 6.48 22 12 22C17.52 22 22 17.52 22 12C22 6.48 17.52 2 12 2ZM12 3.8C16.53 3.8 20.2 7.47 20.2 12C20.2 16.53 16.53 20.2 12 20.2C7.47 20.2 3.8 16.53 3.8 12C3.8 7.47 7.47 3.8 12 3.8ZM12 5.8C8.57 5.8 5.8 8.57 5.8 12C5.8 15.43 8.57 18.2 12 18.2C15.43 18.2 18.2 15.43 18.2 12C18.2 8.57 15.43 5.8 12 5.8ZM12 7.5C14.48 7.5 16.5 9.52 16.5 12C16.5 14.48 14.48 16.5 12 16.5C9.52 16.5 7.5 14.48 7.5 12C7.5 9.52 9.52 7.5 12 7.5Z"/>
</svg> 