<svg xmlns="http://www.w3.org/2000/svg" viewBox="0 0 24 24" fill="#25D366">
  <path d="M12 2C6.48 2 2 6.48 2 12C2 13.96 2.58 15.75 3.56 17.27L2.1 22L6.83 20.54C8.35 21.52 10.14 22.1 12 22.1C17.52 22.1 22 17.62 22 12.1C22 6.58 17.52 2.1 12 2ZM17 15.99C16.89 16.29 16.41 16.59 16.01 16.69C15.61 16.79 15.11 16.84 14.61 16.69C14.11 16.54 13.51 16.29 12.81 15.89C10.91 14.89 9.61 12.94 9.41 12.64C9.21 12.34 8.1 10.94 8.1 9.44C8.1 7.94 8.91 7.24 9.21 6.94C9.51 6.64 9.81 6.54 10.01 6.54H10.41C10.61 6.54 10.91 6.54 11.11 7.04C11.31 7.54 11.81 9.04 11.91 9.24C12.01 9.44 12.01 9.64 11.91 9.84C11.81 10.04 11.71 10.24 11.51 10.44C11.31 10.64 11.11 10.94 10.91 11.14C10.71 11.34 10.51 11.54 10.71 11.84C10.91 12.14 11.41 13.04 12.21 13.74C13.21 14.64 14.01 14.94 14.31 15.14C14.61 15.34 14.81 15.29 15.01 15.09C15.21 14.89 15.71 14.29 15.91 13.99C16.11 13.69 16.31 13.74 16.61 13.84C16.91 13.94 18.31 14.64 18.61 14.79C18.91 14.94 19.11 15.09 19.21 15.19C19.21 15.49 19.11 15.69 17 15.99Z"/>
</svg> 